<?xml version="1.0" encoding="UTF-8" standalone="no"?>
<svg
   xmlns:dc="http://purl.org/dc/elements/1.1/"
   xmlns:cc="http://creativecommons.org/ns#"
   xmlns:rdf="http://www.w3.org/1999/02/22-rdf-syntax-ns#"
   xmlns:svg="http://www.w3.org/2000/svg"
   xmlns="http://www.w3.org/2000/svg"
   viewBox="0 0 591.90125 459.44916"
   height="459.44916"
   width="591.90125"
   xml:space="preserve"
   version="1.1"
   id="svg2"><metadata
     id="metadata8"><rdf:RDF><cc:Work
         rdf:about=""><dc:format>image/svg+xml</dc:format><dc:type
           rdf:resource="http://purl.org/dc/dcmitype/StillImage" /><dc:title></dc:title></cc:Work></rdf:RDF></metadata><defs
     id="defs6"><clipPath
       id="clipPath16"
       clipPathUnits="userSpaceOnUse"><path
         id="path18"
         d="m 0,425.16 474.188,0 L 474.188,0 0,0 0,425.16 Z" /></clipPath></defs><g
     transform="matrix(1.25,0,0,-1.25,0,459.44915)"
     id="g10"><path
       d="m 28.132,325.49499 c 0,13.932 13.932,13.932 13.932,13.932 l 14.2,0 c 13.932,0 13.932,-13.932 13.932,-13.932 l 0,-56.263 c 0,-14.2 -13.932,-14.2 -13.932,-14.2 l -14.2,0 c -13.932,0 -13.932,14.2 -13.932,14.2 z m 13.932,-98.595 14.2,0 c 42.064,0 42.064,42.332 42.064,42.332 l 0,56.263 c 0,42.064 -42.064,42.064 -42.064,42.064 l -14.2,0 C 0,367.55899 0,325.49499 0,325.49499 l 0,-56.263 c 0,-42.332 42.064,-42.332 42.064,-42.332 m 153.58,42.332 c 0,-14.2 -14.2,-14.2 -14.2,-14.2 l -28.131,0 0,70.463 c 0,13.932 14.199,13.932 14.199,13.932 l 13.932,0 c 14.2,0 14.2,-13.932 14.2,-13.932 z m -14.2,98.327 -13.932,0 c -14.199,0 -14.199,-13.932 -14.199,-13.932 l -13.932,13.932 -14.2,0 0,-200.122 28.132,0 0,59.463 28.131,0 c 0,0 42.332,0 42.332,42.332 l 0,56.263 c 0,42.064 -42.332,42.064 -42.332,42.064 m 96.878,-42.064 c 0,13.932 14.199,13.932 14.199,13.932 l 13.932,0 c 0,0 14.201,0 14.201,-13.932 0,-14.199 -14.201,-14.199 -14.201,-14.199 l -28.131,0 z m 28.131,-42.331 c 42.331,0 42.331,42.331 42.331,42.331 0,42.064 -42.331,42.064 -42.331,42.064 l -13.932,0 c -42.332,0 -42.332,-42.064 -42.332,-42.064 l 0,-56.263 c 0,-42.332 42.332,-42.332 42.332,-42.332 l 56.263,0 0,28.132 -56.263,0 c -14.199,0 -14.199,14.2 -14.199,14.2 l 0,13.932 z m 123.803,84.395 -13.932,0 c 0,0 -14.2,0 -14.2,-14.2 l -13.932,14.2 -14.2,0 0,-140.659 28.132,0 0,98.327 c 0,0 0,14.2 14.2,14.2 l 13.932,0 c 0,0 14.2,0 14.2,-14.2 l 0,-98.327 28.131,0 0,99.131 c 0,42.064 -42.331,41.528 -42.331,41.528 M 32.933,98.59499 c 0,13.933 14.199,13.933 14.199,13.933 l 13.932,0 c 0,0 14.2,0 14.2,-13.933 0,-14.199 -14.2,-14.199 -14.2,-14.199 l -28.131,0 z m 28.131,-42.331 c 42.332,0 42.332,42.331 42.332,42.331 0,42.064 -42.332,42.064 -42.332,42.064 l -13.932,0 c -42.331,0 -42.331,-42.064 -42.331,-42.064 l 0,-56.264 C 4.801,-9.765625e-6 47.132,-9.765625e-6 47.132,-9.765625e-6 l 56.264,0 0,28.131999765625 -56.264,0 c -14.199,0 -14.199,14.199 -14.199,14.199 l 0,13.933 z m 91.465,42.331 c 0,13.933 14.2,13.933 14.2,13.933 l 47.69,0 0,28.131 -47.69,0 c 0,0 -42.331,0 -42.331,-39.384 0,-50.638 70.463,-39.384 70.463,-58.944 0,-14.199 -14.2,-14.199 -14.2,-14.199 l -47.69,0 0,-28.1319997656249 47.69,0 c 0,0 42.332,0 42.332,39.3839997656249 0,50.639 -70.464,39.386 -70.464,59.211 m 163.912,-56.264 c 0,-14.199 -13.932,-14.199 -13.932,-14.199 l -14.201,0 c -13.931,0 -13.931,14.199 -13.931,14.199 l 0,56.264 c 0,13.933 13.931,13.933 13.931,13.933 l 28.133,0 z m 0,98.328 -28.133,0 c 0,0 -42.063,0 -42.063,-42.064 l 0,-56.264 C 246.245,-9.765625e-6 288.308,-9.765625e-6 288.308,-9.765625e-6 l 14.201,0 C 316.441,-9.765625e-6 316.441,14.19999 316.441,14.19999 L 330.64,-9.765625e-6 l 13.932,0 0,196.921999765625 -28.131,0 z m 115.017,0 -28.132,0 0,56.799 -28.132,0 0,-197.4579997656249 28.132,0 0,112.5279997656249 28.132,0 c 0,0 13.932,0 13.932,-13.933 l 0,-98.5949997656249 28.131,0 0,98.5949997656249 c 0,42.064 -42.063,42.064 -42.063,42.064"
       style="fill:#1e88e5;fill-opacity:1;fill-rule:nonzero;stroke:none"
       id="path22" /></g></svg>